<?xml version="1.0" encoding="utf-8"?>
<!-- Generator: Adobe Illustrator 25.1.0, SVG Export Plug-In . SVG Version: 6.00 Build 0)  -->
<svg version="1.1" id="Layer_1" xmlns="http://www.w3.org/2000/svg" xmlns:xlink="http://www.w3.org/1999/xlink" x="0px" y="0px"
	 viewBox="0 0 8 5.3" style="enable-background:new 0 0 8 5.3;" xml:space="preserve">
<path id="Path_691" d="M8,1.2L6.8,0c0,0-0.1,0-0.1,0l0,0c0,0-0.1,0-0.1,0L4,2.6L1.4,0C1.3,0,1.3,0,1.2,0c0,0,0,0,0,0L0,1.2
	C0,1.2,0,1.3,0,1.4c0,0,0,0,0,0l3.8,3.8C4,5.3,4,5.3,4.1,5.3L8,1.4C8,1.3,8,1.3,8,1.2C8,1.2,8,1.2,8,1.2L8,1.2z"/>
</svg>
