<?xml version="1.0" encoding="UTF-8"?>
<svg id="Layer_1" xmlns="http://www.w3.org/2000/svg" version="1.1" viewBox="0 0 20 20">
  <!-- Generator: Adobe Illustrator 29.3.0, SVG Export Plug-In . SVG Version: 2.1.0 Build 146)  -->
  <defs>
    <style>
      .st0 {
        fill: #e7534f;
      }
    </style>
  </defs>
  <path class="st0" d="M10,20c-2.6,0-5.1-1-7.1-2.9h0s0,0,0,0c-1.9-1.9-2.9-4.4-2.9-7.1S1,4.8,2.9,2.9c3.9-3.9,10.2-3.9,14.1,0,3.9,3.9,3.9,10.2,0,14.1s-4.5,2.9-7.1,2.9ZM10,1c-2.4,0-4.7.9-6.4,2.6-1.7,1.7-2.6,4-2.6,6.4s.9,4.7,2.6,6.4h0c1.7,1.7,4,2.6,6.4,2.6s4.7-.9,6.4-2.6,2.6-4,2.6-6.4-.9-4.7-2.6-6.4S12.4,1,10,1Z"/>
  <rect class="st0" x="6" y="9.5" width="8" height="1" transform="translate(-4.1 10) rotate(-45)"/>
  <rect class="st0" x="9.5" y="6" width="1" height="8" transform="translate(-4.1 10) rotate(-45)"/>
</svg>